<?xml version="1.0" encoding="UTF-8"?><svg id="Layer_2" xmlns="http://www.w3.org/2000/svg" width="1788" height="197" xmlns:xlink="http://www.w3.org/1999/xlink" viewBox="0 0 1788 197"><defs><style>.cls-1,.cls-2{fill:none;}.cls-3{clip-path:url(#clippath);}.cls-4{clip-path:url(#clippath-1);}.cls-5{clip-path:url(#clippath-4);}.cls-6{clip-path:url(#clippath-3);}.cls-7{clip-path:url(#clippath-2);}.cls-8{clip-path:url(#clippath-6);}.cls-9{clip-path:url(#clippath-5);}.cls-2{stroke:#fff;stroke-miterlimit:10;stroke-width:4px;}</style><clipPath id="clippath"><path class="cls-1" d="M188.06,141.4H103.87l-13.71,26.61H29.07L114.45,14.08h63.74l85.39,153.94h-61.81l-13.71-26.61Zm-17.8-34.75l-24.29-47.5-24.29,47.5h48.59Z"/></clipPath><clipPath id="clippath-1"><path class="cls-1" d="M487.97,126.01c0,25.73-26.94,42-69.27,42h-134.21V14.08h124.59c42.33,0,69.27,15.83,69.27,40.02,0,17.37-14.19,32.55-39.69,34.09,26.94,1.54,49.31,14.51,49.31,37.82Zm-145.76-51.68h57.24c12.03,0,20.69-3.3,20.69-12.97s-8.66-12.75-20.69-12.75h-57.24v25.73Zm85.63,45.08c0-9.9-8.18-13.85-21.41-13.85h-64.22v27.93h64.22c13.23,0,21.41-4.18,21.41-14.07Z"/></clipPath><clipPath id="clippath-2"><path class="cls-1" d="M510.08,91.04c0-52.56,44.74-82.03,112.08-82.03s112.33,29.47,112.33,82.03-44.74,82.03-112.33,82.03-112.08-29.47-112.08-82.03Zm164.76,0c0-25.29-19.96-40.02-52.67-40.02s-52.67,14.73-52.67,40.02,19.96,40.02,52.67,40.02,52.67-14.73,52.67-40.02Z"/></clipPath><clipPath id="clippath-3"><path class="cls-1" d="M960.89,17.08V98.44c0,47.5-36.08,77.63-100.54,77.63s-100.78-30.13-100.78-77.63V17.08h58.69V94.26c0,22.87,12.99,39.36,42.09,39.36s41.85-16.49,41.85-39.36V17.08h58.69Z"/></clipPath><clipPath id="clippath-4"><path class="cls-1" d="M1179.63,54.76h-66.62v113.25h-58.69V54.76h-66.38V14.08h191.7V54.76Z"/></clipPath><clipPath id="clippath-5"><path class="cls-1" d="M1557.54,14.08V168.01h-57.97V77.63l-61.09,68.83h-2.89l-60.85-68.83v90.38h-56.52V14.08h63.98l56.28,67.07,56.76-67.07h62.3Z"/></clipPath><clipPath id="clippath-6"><path class="cls-1" d="M1767.9,129.31v38.7h-184.96V14.08h182.32V52.78h-124.83v19.57h101.74v35.63h-101.74v21.33h127.48Z"/></clipPath></defs><g class="cls-3"><g><path class="cls-2" d="M-93.35-35.29C-56.23-35.29-56.23,2.71-19.11,2.71S18.02-35.29,55.14-35.29,92.27,2.71,129.39,2.71s37.12-38,74.25-38S240.76,2.71,277.89,2.71s37.13-38,74.25-38S389.26,2.71,426.39,2.71s37.13-38,74.25-38"/><path class="cls-2" d="M-93.35-27.29C-56.23-27.29-56.23,10.71-19.11,10.71S18.02-27.29,55.14-27.29,92.27,10.71,129.39,10.71s37.12-38,74.25-38S240.76,10.71,277.89,10.71s37.13-38,74.25-38,37.13,38,74.25,38,37.13-38,74.25-38"/><path class="cls-2" d="M-93.35-19.29c37.12,0,37.12,38,74.25,38S18.02-19.29,55.14-19.29,92.27,18.71,129.39,18.71s37.12-38,74.25-38,37.12,38,74.25,38,37.13-38,74.25-38,37.13,38,74.25,38,37.13-38,74.25-38"/><path class="cls-2" d="M-93.35-11.29C-56.23-11.29-56.23,26.71-19.11,26.71S18.02-11.29,55.14-11.29,92.27,26.71,129.39,26.71,166.51-11.29,203.64-11.29s37.12,38,74.25,38,37.13-38,74.25-38,37.13,38,74.25,38,37.13-38,74.25-38"/><path class="cls-2" d="M-93.35-3.29C-56.23-3.29-56.23,34.71-19.11,34.71S18.02-3.29,55.14-3.29s37.12,38,74.25,38S166.51-3.29,203.64-3.29s37.12,38,74.25,38S315.01-3.29,352.14-3.29s37.13,38,74.25,38S463.52-3.29,500.65-3.29"/><path class="cls-2" d="M-93.35,4.71c37.12,0,37.12,38,74.25,38S18.02,4.71,55.14,4.71s37.12,38,74.25,38S166.51,4.71,203.64,4.71s37.12,38,74.25,38S315.01,4.71,352.14,4.71s37.13,38,74.25,38S463.52,4.71,500.65,4.71"/><path class="cls-2" d="M-93.35,12.71c37.12,0,37.12,38,74.25,38S18.02,12.71,55.14,12.71s37.12,38,74.25,38S166.51,12.71,203.64,12.71s37.12,38,74.25,38,37.13-38,74.25-38,37.13,38,74.25,38,37.13-38,74.25-38"/><path class="cls-2" d="M-93.35,20.71c37.12,0,37.12,38,74.25,38S18.02,20.71,55.14,20.71s37.12,38,74.25,38,37.12-38,74.25-38,37.12,38,74.25,38,37.13-38,74.25-38,37.13,38,74.25,38,37.13-38,74.25-38"/><path class="cls-2" d="M-93.35,28.71c37.12,0,37.12,38,74.25,38S18.02,28.71,55.14,28.71s37.12,38,74.25,38,37.12-38,74.25-38,37.12,38,74.25,38,37.13-38,74.25-38,37.13,38,74.25,38,37.13-38,74.25-38"/><path class="cls-2" d="M-93.35,36.71c37.12,0,37.12,38,74.25,38S18.02,36.71,55.14,36.71s37.12,38,74.25,38,37.12-38,74.25-38,37.12,38,74.25,38,37.13-38,74.25-38,37.13,38,74.25,38,37.13-38,74.25-38"/><path class="cls-2" d="M-93.35,44.71c37.12,0,37.12,38,74.25,38S18.02,44.71,55.14,44.71s37.12,38,74.25,38,37.12-38,74.25-38,37.12,38,74.25,38,37.13-38,74.25-38,37.13,38,74.25,38,37.13-38,74.25-38"/><path class="cls-2" d="M-93.35,52.71c37.12,0,37.12,38,74.25,38S18.02,52.71,55.14,52.71s37.12,38,74.25,38,37.12-38,74.25-38,37.12,38,74.25,38,37.13-38,74.25-38,37.13,38,74.25,38,37.13-38,74.25-38"/><path class="cls-2" d="M-93.35,60.71c37.12,0,37.12,38,74.25,38S18.02,60.71,55.14,60.71s37.12,38,74.25,38,37.12-38,74.25-38,37.12,38,74.25,38,37.13-38,74.25-38,37.13,38,74.25,38,37.13-38,74.25-38"/><path class="cls-2" d="M-93.35,68.71c37.12,0,37.12,38,74.25,38S18.02,68.71,55.14,68.71s37.12,38,74.25,38,37.12-38,74.25-38,37.12,38,74.25,38,37.13-38,74.25-38,37.13,38,74.25,38,37.13-38,74.25-38"/><path class="cls-2" d="M-93.35,76.71c37.12,0,37.12,38,74.25,38S18.02,76.71,55.14,76.71s37.12,38,74.25,38,37.12-38,74.25-38,37.12,38,74.25,38,37.13-38,74.25-38,37.13,38,74.25,38,37.13-38,74.25-38"/><path class="cls-2" d="M-93.35,84.71c37.12,0,37.12,38,74.25,38S18.02,84.71,55.14,84.71s37.12,38,74.25,38,37.12-38,74.25-38,37.12,38,74.25,38,37.13-38,74.25-38,37.13,38,74.25,38,37.13-38,74.25-38"/><path class="cls-2" d="M-93.35,92.71c37.12,0,37.12,38,74.25,38S18.02,92.71,55.14,92.71s37.12,38,74.25,38,37.12-38,74.25-38,37.12,38,74.25,38,37.13-38,74.25-38,37.13,38,74.25,38,37.13-38,74.25-38"/><path class="cls-2" d="M-93.35,100.71c37.12,0,37.12,38,74.25,38S18.02,100.71,55.14,100.71s37.12,38,74.25,38,37.12-38,74.25-38,37.12,38,74.25,38,37.13-38,74.25-38,37.13,38,74.25,38,37.13-38,74.25-38"/><path class="cls-2" d="M-93.35,108.71c37.12,0,37.12,38,74.25,38S18.02,108.71,55.14,108.71s37.12,38,74.25,38,37.12-38,74.25-38,37.12,38,74.25,38,37.13-38,74.25-38,37.13,38,74.25,38,37.13-38,74.25-38"/><path class="cls-2" d="M-93.35,116.71c37.12,0,37.12,38,74.25,38S18.02,116.71,55.14,116.71s37.12,38,74.25,38,37.12-38,74.25-38,37.12,38,74.25,38,37.13-38,74.25-38,37.13,38,74.25,38,37.13-38,74.25-38"/><path class="cls-2" d="M-93.35,124.71c37.12,0,37.12,38,74.25,38S18.02,124.71,55.14,124.71s37.12,38,74.25,38,37.12-38,74.25-38,37.12,38,74.25,38,37.13-38,74.25-38,37.13,38,74.25,38,37.13-38,74.25-38"/><path class="cls-2" d="M-93.35,132.71c37.12,0,37.12,38,74.25,38s37.12-38,74.25-38,37.12,38,74.25,38,37.12-38,74.25-38,37.12,38,74.25,38,37.13-38,74.25-38,37.13,38,74.25,38,37.13-38,74.25-38"/><path class="cls-2" d="M-93.35,140.71c37.12,0,37.12,38,74.25,38s37.12-38,74.25-38,37.12,38,74.25,38,37.12-38,74.25-38,37.12,38,74.25,38,37.13-38,74.25-38,37.13,38,74.25,38,37.13-38,74.25-38"/><path class="cls-2" d="M-93.35,148.71c37.12,0,37.12,38,74.25,38s37.12-38,74.25-38,37.12,38,74.25,38,37.12-38,74.25-38,37.12,38,74.25,38,37.13-38,74.25-38,37.13,38,74.25,38,37.13-38,74.25-38"/><path class="cls-2" d="M-93.35,156.71c37.12,0,37.12,38,74.25,38s37.12-38,74.25-38,37.12,38,74.25,38,37.12-38,74.25-38,37.12,38,74.25,38,37.13-38,74.25-38,37.13,38,74.25,38,37.13-38,74.25-38"/><path class="cls-2" d="M-93.35,164.71c37.12,0,37.12,38,74.25,38s37.12-38,74.25-38,37.12,38,74.25,38,37.12-38,74.25-38,37.12,38,74.25,38,37.13-38,74.25-38,37.13,38,74.25,38,37.13-38,74.25-38"/><path class="cls-2" d="M-93.35,172.71c37.12,0,37.12,38,74.25,38s37.12-38,74.25-38,37.12,38,74.25,38,37.12-38,74.25-38,37.12,38,74.25,38,37.13-38,74.25-38,37.13,38,74.25,38,37.13-38,74.25-38"/><path class="cls-2" d="M-93.35,180.71c37.12,0,37.12,38,74.25,38s37.12-38,74.25-38,37.12,38,74.25,38,37.12-38,74.25-38,37.12,38,74.25,38,37.13-38,74.25-38,37.13,38,74.25,38,37.13-38,74.25-38"/><path class="cls-2" d="M-93.35,188.71c37.12,0,37.12,38,74.25,38s37.12-38,74.25-38,37.12,38,74.25,38,37.12-38,74.25-38,37.12,38,74.25,38,37.13-38,74.25-38,37.13,38,74.25,38,37.13-38,74.25-38"/><path class="cls-2" d="M-93.35,196.71c37.12,0,37.12,38,74.25,38s37.12-38,74.25-38,37.12,38,74.25,38,37.12-38,74.25-38,37.12,38,74.25,38,37.13-38,74.25-38,37.13,38,74.25,38,37.13-38,74.25-38"/></g></g><g class="cls-4"><g><path class="cls-2" d="M142.65-36.29c37.12,0,37.12,38,74.25,38s37.12-38,74.25-38S328.27,1.71,365.39,1.71s37.12-38,74.25-38S476.76,1.71,513.89,1.71s37.13-38,74.25-38S625.26,1.71,662.39,1.71s37.13-38,74.25-38"/><path class="cls-2" d="M142.65-28.29c37.12,0,37.12,38,74.25,38s37.12-38,74.25-38,37.12,38,74.25,38,37.12-38,74.25-38,37.12,38,74.25,38,37.13-38,74.25-38,37.13,38,74.25,38,37.13-38,74.25-38"/><path class="cls-2" d="M142.65-20.29c37.12,0,37.12,38,74.25,38s37.12-38,74.25-38,37.12,38,74.25,38,37.12-38,74.25-38,37.12,38,74.25,38,37.13-38,74.25-38,37.13,38,74.25,38,37.13-38,74.25-38"/><path class="cls-2" d="M142.65-12.29c37.12,0,37.12,38,74.25,38S254.02-12.29,291.14-12.29s37.12,38,74.25,38,37.12-38,74.25-38,37.12,38,74.25,38,37.13-38,74.25-38,37.13,38,74.25,38,37.13-38,74.25-38"/><path class="cls-2" d="M142.65-4.29c37.12,0,37.12,38,74.25,38S254.02-4.29,291.14-4.29s37.12,38,74.25,38S402.51-4.29,439.64-4.29s37.12,38,74.25,38,37.13-38,74.25-38,37.13,38,74.25,38,37.13-38,74.25-38"/><path class="cls-2" d="M142.65,3.71c37.12,0,37.12,38,74.25,38S254.02,3.71,291.14,3.71s37.12,38,74.25,38S402.51,3.71,439.64,3.71s37.12,38,74.25,38S551.01,3.71,588.14,3.71s37.13,38,74.25,38S699.52,3.71,736.65,3.71"/><path class="cls-2" d="M142.65,11.71c37.12,0,37.12,38,74.25,38S254.02,11.71,291.14,11.71s37.12,38,74.25,38,37.12-38,74.25-38,37.12,38,74.25,38,37.13-38,74.25-38,37.13,38,74.25,38,37.13-38,74.25-38"/><path class="cls-2" d="M142.65,19.71c37.12,0,37.12,38,74.25,38s37.12-38,74.25-38,37.12,38,74.25,38,37.12-38,74.25-38,37.12,38,74.25,38,37.13-38,74.25-38,37.13,38,74.25,38,37.13-38,74.25-38"/><path class="cls-2" d="M142.65,27.71c37.12,0,37.12,38,74.25,38s37.12-38,74.25-38,37.12,38,74.25,38,37.12-38,74.25-38,37.12,38,74.25,38,37.13-38,74.25-38,37.13,38,74.25,38,37.13-38,74.25-38"/><path class="cls-2" d="M142.65,35.71c37.12,0,37.12,38,74.25,38s37.12-38,74.25-38,37.12,38,74.25,38,37.12-38,74.25-38,37.12,38,74.25,38,37.13-38,74.25-38,37.13,38,74.25,38,37.13-38,74.25-38"/><path class="cls-2" d="M142.65,43.71c37.12,0,37.12,38,74.25,38s37.12-38,74.25-38,37.12,38,74.25,38,37.12-38,74.25-38,37.12,38,74.25,38,37.13-38,74.25-38,37.13,38,74.25,38,37.13-38,74.25-38"/><path class="cls-2" d="M142.65,51.71c37.12,0,37.12,38,74.25,38s37.12-38,74.25-38,37.12,38,74.25,38,37.12-38,74.25-38,37.12,38,74.25,38,37.13-38,74.25-38,37.13,38,74.25,38,37.13-38,74.25-38"/><path class="cls-2" d="M142.65,59.71c37.12,0,37.12,38,74.25,38s37.12-38,74.25-38,37.12,38,74.25,38,37.12-38,74.25-38,37.12,38,74.25,38,37.13-38,74.25-38,37.13,38,74.25,38,37.13-38,74.25-38"/><path class="cls-2" d="M142.65,67.71c37.12,0,37.12,38,74.25,38s37.12-38,74.25-38,37.12,38,74.25,38,37.12-38,74.25-38,37.12,38,74.25,38,37.13-38,74.25-38,37.13,38,74.25,38,37.13-38,74.25-38"/><path class="cls-2" d="M142.65,75.71c37.12,0,37.12,38,74.25,38s37.12-38,74.25-38,37.12,38,74.25,38,37.12-38,74.25-38,37.12,38,74.25,38,37.13-38,74.25-38,37.13,38,74.25,38,37.13-38,74.25-38"/><path class="cls-2" d="M142.65,83.71c37.12,0,37.12,38,74.25,38s37.12-38,74.25-38,37.12,38,74.25,38,37.12-38,74.25-38,37.12,38,74.25,38,37.13-38,74.25-38,37.13,38,74.25,38,37.13-38,74.25-38"/><path class="cls-2" d="M142.65,91.71c37.12,0,37.12,38,74.25,38s37.12-38,74.25-38,37.12,38,74.25,38,37.12-38,74.25-38,37.12,38,74.25,38,37.13-38,74.25-38,37.13,38,74.25,38,37.13-38,74.25-38"/><path class="cls-2" d="M142.65,99.71c37.12,0,37.12,38,74.25,38s37.12-38,74.25-38,37.12,38,74.25,38,37.12-38,74.25-38,37.12,38,74.25,38,37.13-38,74.25-38,37.13,38,74.25,38,37.13-38,74.25-38"/><path class="cls-2" d="M142.65,107.71c37.12,0,37.12,38,74.25,38s37.12-38,74.25-38,37.12,38,74.25,38,37.12-38,74.25-38,37.12,38,74.25,38,37.13-38,74.25-38,37.13,38,74.25,38,37.13-38,74.25-38"/><path class="cls-2" d="M142.65,115.71c37.12,0,37.12,38,74.25,38s37.12-38,74.25-38,37.12,38,74.25,38,37.12-38,74.25-38,37.12,38,74.25,38,37.13-38,74.25-38,37.13,38,74.25,38,37.13-38,74.25-38"/><path class="cls-2" d="M142.65,123.71c37.12,0,37.12,38,74.25,38s37.12-38,74.25-38,37.12,38,74.25,38,37.12-38,74.25-38,37.12,38,74.25,38,37.13-38,74.25-38,37.13,38,74.25,38,37.13-38,74.25-38"/><path class="cls-2" d="M142.65,131.71c37.12,0,37.12,38,74.25,38s37.12-38,74.25-38,37.12,38,74.25,38,37.12-38,74.25-38,37.12,38,74.25,38,37.13-38,74.25-38,37.13,38,74.25,38,37.13-38,74.25-38"/><path class="cls-2" d="M142.65,139.71c37.12,0,37.12,38,74.25,38s37.12-38,74.25-38,37.12,38,74.25,38,37.12-38,74.25-38,37.12,38,74.25,38,37.13-38,74.25-38,37.13,38,74.25,38,37.13-38,74.25-38"/><path class="cls-2" d="M142.65,147.71c37.12,0,37.12,38,74.25,38s37.12-38,74.25-38,37.12,38,74.25,38,37.12-38,74.25-38,37.12,38,74.25,38,37.13-38,74.25-38,37.13,38,74.25,38,37.13-38,74.25-38"/><path class="cls-2" d="M142.65,155.71c37.12,0,37.12,38,74.25,38s37.12-38,74.25-38,37.12,38,74.25,38,37.12-38,74.25-38,37.12,38,74.25,38,37.13-38,74.25-38,37.13,38,74.25,38,37.13-38,74.25-38"/><path class="cls-2" d="M142.65,163.71c37.12,0,37.12,38,74.25,38s37.12-38,74.25-38,37.12,38,74.25,38,37.12-38,74.25-38,37.12,38,74.25,38,37.13-38,74.25-38,37.13,38,74.25,38,37.13-38,74.25-38"/><path class="cls-2" d="M142.65,171.71c37.12,0,37.12,38,74.25,38s37.12-38,74.25-38,37.12,38,74.25,38,37.12-38,74.25-38,37.12,38,74.25,38,37.13-38,74.25-38,37.13,38,74.25,38,37.13-38,74.25-38"/><path class="cls-2" d="M142.65,179.71c37.12,0,37.12,38,74.25,38s37.12-38,74.25-38,37.12,38,74.25,38,37.12-38,74.25-38,37.12,38,74.25,38,37.13-38,74.25-38,37.13,38,74.25,38,37.13-38,74.25-38"/><path class="cls-2" d="M142.65,187.71c37.12,0,37.12,38,74.25,38s37.12-38,74.25-38,37.12,38,74.25,38,37.12-38,74.25-38,37.12,38,74.25,38,37.13-38,74.25-38,37.13,38,74.25,38,37.13-38,74.25-38"/><path class="cls-2" d="M142.65,195.71c37.12,0,37.12,38,74.25,38s37.12-38,74.25-38,37.12,38,74.25,38,37.12-38,74.25-38,37.12,38,74.25,38,37.13-38,74.25-38,37.13,38,74.25,38,37.13-38,74.25-38"/></g></g><g class="cls-7"><g><path class="cls-2" d="M425.65-39.29c37.12,0,37.12,38,74.25,38s37.12-38,74.25-38S611.27-1.29,648.39-1.29s37.12-38,74.25-38S759.76-1.29,796.89-1.29s37.13-38,74.25-38S908.26-1.29,945.39-1.29s37.13-38,74.25-38"/><path class="cls-2" d="M425.65-31.29c37.12,0,37.12,38,74.25,38s37.12-38,74.25-38,37.12,38,74.25,38,37.12-38,74.25-38,37.12,38,74.25,38,37.13-38,74.25-38,37.13,38,74.25,38,37.13-38,74.25-38"/><path class="cls-2" d="M425.65-23.29c37.12,0,37.12,38,74.25,38s37.12-38,74.25-38,37.12,38,74.25,38,37.12-38,74.25-38,37.12,38,74.25,38,37.13-38,74.25-38,37.13,38,74.25,38,37.13-38,74.25-38"/><path class="cls-2" d="M425.65-15.29c37.12,0,37.12,38,74.25,38s37.12-38,74.25-38,37.12,38,74.25,38,37.12-38,74.25-38,37.12,38,74.25,38,37.13-38,74.25-38,37.13,38,74.25,38,37.13-38,74.25-38"/><path class="cls-2" d="M425.65-7.29c37.12,0,37.12,38,74.25,38s37.12-38,74.25-38,37.12,38,74.25,38,37.12-38,74.25-38,37.12,38,74.25,38,37.13-38,74.25-38,37.13,38,74.25,38,37.13-38,74.25-38"/><path class="cls-2" d="M425.65,.71c37.12,0,37.12,38,74.25,38S537.02,.71,574.14,.71s37.12,38,74.25,38S685.51,.71,722.64,.71s37.12,38,74.25,38S834.01,.71,871.14,.71s37.13,38,74.25,38S982.52,.71,1019.65,.71"/><path class="cls-2" d="M425.65,8.71c37.12,0,37.12,38,74.25,38s37.12-38,74.25-38,37.12,38,74.25,38,37.12-38,74.25-38,37.12,38,74.25,38,37.13-38,74.25-38,37.13,38,74.25,38,37.13-38,74.25-38"/><path class="cls-2" d="M425.65,16.71c37.12,0,37.12,38,74.25,38s37.12-38,74.25-38,37.12,38,74.25,38,37.12-38,74.25-38,37.12,38,74.25,38,37.13-38,74.25-38,37.13,38,74.25,38,37.13-38,74.25-38"/><path class="cls-2" d="M425.65,24.71c37.12,0,37.12,38,74.25,38s37.12-38,74.25-38,37.12,38,74.25,38,37.12-38,74.25-38,37.12,38,74.25,38,37.13-38,74.25-38,37.13,38,74.25,38,37.13-38,74.25-38"/><path class="cls-2" d="M425.65,32.71c37.12,0,37.12,38,74.25,38s37.12-38,74.25-38,37.12,38,74.25,38,37.12-38,74.25-38,37.12,38,74.25,38,37.13-38,74.25-38,37.13,38,74.25,38,37.13-38,74.25-38"/><path class="cls-2" d="M425.65,40.71c37.12,0,37.12,38,74.25,38s37.12-38,74.25-38,37.12,38,74.25,38,37.12-38,74.25-38,37.12,38,74.25,38,37.13-38,74.25-38,37.13,38,74.25,38,37.13-38,74.25-38"/><path class="cls-2" d="M425.65,48.71c37.12,0,37.12,38,74.25,38s37.12-38,74.25-38,37.12,38,74.25,38,37.12-38,74.25-38,37.12,38,74.25,38,37.13-38,74.25-38,37.13,38,74.25,38,37.13-38,74.25-38"/><path class="cls-2" d="M425.65,56.71c37.12,0,37.12,38,74.25,38s37.12-38,74.25-38,37.12,38,74.25,38,37.12-38,74.25-38,37.12,38,74.25,38,37.13-38,74.25-38,37.13,38,74.25,38,37.13-38,74.25-38"/><path class="cls-2" d="M425.65,64.71c37.12,0,37.12,38,74.25,38s37.12-38,74.25-38,37.12,38,74.25,38,37.12-38,74.25-38,37.12,38,74.25,38,37.13-38,74.25-38,37.13,38,74.25,38,37.13-38,74.25-38"/><path class="cls-2" d="M425.65,72.71c37.12,0,37.12,38,74.25,38s37.12-38,74.25-38,37.12,38,74.25,38,37.12-38,74.25-38,37.12,38,74.25,38,37.13-38,74.25-38,37.13,38,74.25,38,37.13-38,74.25-38"/><path class="cls-2" d="M425.65,80.71c37.12,0,37.12,38,74.25,38s37.12-38,74.25-38,37.12,38,74.25,38,37.12-38,74.25-38,37.12,38,74.25,38,37.13-38,74.25-38,37.13,38,74.25,38,37.13-38,74.25-38"/><path class="cls-2" d="M425.65,88.71c37.12,0,37.12,38,74.25,38s37.12-38,74.25-38,37.12,38,74.25,38,37.12-38,74.25-38,37.12,38,74.25,38,37.13-38,74.25-38,37.13,38,74.25,38,37.13-38,74.25-38"/><path class="cls-2" d="M425.65,96.71c37.12,0,37.12,38,74.25,38s37.12-38,74.25-38,37.12,38,74.25,38,37.12-38,74.25-38,37.12,38,74.25,38,37.13-38,74.25-38,37.13,38,74.25,38,37.13-38,74.25-38"/><path class="cls-2" d="M425.65,104.71c37.12,0,37.12,38,74.25,38s37.12-38,74.25-38,37.12,38,74.25,38,37.12-38,74.25-38,37.12,38,74.25,38,37.13-38,74.25-38,37.13,38,74.25,38,37.13-38,74.25-38"/><path class="cls-2" d="M425.65,112.71c37.12,0,37.12,38,74.25,38s37.12-38,74.25-38,37.12,38,74.25,38,37.12-38,74.25-38,37.12,38,74.25,38,37.13-38,74.25-38,37.13,38,74.25,38,37.13-38,74.25-38"/><path class="cls-2" d="M425.65,120.71c37.12,0,37.12,38,74.25,38s37.12-38,74.25-38,37.12,38,74.25,38,37.12-38,74.25-38,37.12,38,74.25,38,37.13-38,74.25-38,37.13,38,74.25,38,37.13-38,74.25-38"/><path class="cls-2" d="M425.65,128.71c37.12,0,37.12,38,74.25,38s37.12-38,74.25-38,37.12,38,74.25,38,37.12-38,74.25-38,37.12,38,74.25,38,37.13-38,74.25-38,37.13,38,74.25,38,37.13-38,74.25-38"/><path class="cls-2" d="M425.65,136.71c37.12,0,37.12,38,74.25,38s37.12-38,74.25-38,37.12,38,74.25,38,37.12-38,74.25-38,37.12,38,74.25,38,37.13-38,74.25-38,37.13,38,74.25,38,37.13-38,74.25-38"/><path class="cls-2" d="M425.65,144.71c37.12,0,37.12,38,74.25,38s37.12-38,74.25-38,37.12,38,74.25,38,37.12-38,74.25-38,37.12,38,74.25,38,37.13-38,74.25-38,37.13,38,74.25,38,37.13-38,74.25-38"/><path class="cls-2" d="M425.65,152.71c37.12,0,37.12,38,74.25,38s37.12-38,74.25-38,37.12,38,74.25,38,37.12-38,74.25-38,37.12,38,74.25,38,37.13-38,74.25-38,37.13,38,74.25,38,37.13-38,74.25-38"/><path class="cls-2" d="M425.65,160.71c37.12,0,37.12,38,74.25,38s37.12-38,74.25-38,37.12,38,74.25,38,37.12-38,74.25-38,37.12,38,74.25,38,37.13-38,74.25-38,37.13,38,74.25,38,37.13-38,74.25-38"/><path class="cls-2" d="M425.65,168.71c37.12,0,37.12,38,74.25,38s37.12-38,74.25-38,37.12,38,74.25,38,37.12-38,74.25-38,37.12,38,74.25,38,37.13-38,74.25-38,37.13,38,74.25,38,37.13-38,74.25-38"/><path class="cls-2" d="M425.65,176.71c37.12,0,37.12,38,74.25,38s37.12-38,74.25-38,37.12,38,74.25,38,37.12-38,74.25-38,37.12,38,74.25,38,37.13-38,74.25-38,37.13,38,74.25,38,37.13-38,74.25-38"/><path class="cls-2" d="M425.65,184.71c37.12,0,37.12,38,74.25,38s37.12-38,74.25-38,37.12,38,74.25,38,37.12-38,74.25-38,37.12,38,74.25,38,37.13-38,74.25-38,37.13,38,74.25,38,37.13-38,74.25-38"/><path class="cls-2" d="M425.65,192.71c37.12,0,37.12,38,74.25,38s37.12-38,74.25-38,37.12,38,74.25,38,37.12-38,74.25-38,37.12,38,74.25,38,37.13-38,74.25-38,37.13,38,74.25,38,37.13-38,74.25-38"/></g></g><g class="cls-6"><g><path class="cls-2" d="M590.65-34.29c37.12,0,37.12,38,74.25,38s37.12-38,74.25-38S776.27,3.71,813.39,3.71s37.12-38,74.25-38S924.76,3.71,961.89,3.71s37.13-38,74.25-38,37.13,38,74.25,38,37.13-38,74.25-38"/><path class="cls-2" d="M590.65-26.29c37.12,0,37.12,38,74.25,38s37.12-38,74.25-38,37.12,38,74.25,38,37.12-38,74.25-38,37.12,38,74.25,38,37.13-38,74.25-38,37.13,38,74.25,38,37.13-38,74.25-38"/><path class="cls-2" d="M590.65-18.29c37.12,0,37.12,38,74.25,38s37.12-38,74.25-38,37.12,38,74.25,38,37.12-38,74.25-38,37.12,38,74.25,38,37.13-38,74.25-38,37.13,38,74.25,38,37.13-38,74.25-38"/><path class="cls-2" d="M590.65-10.29c37.12,0,37.12,38,74.25,38s37.12-38,74.25-38,37.12,38,74.25,38,37.12-38,74.25-38,37.12,38,74.25,38,37.13-38,74.25-38,37.13,38,74.25,38,37.13-38,74.25-38"/><path class="cls-2" d="M590.65-2.29c37.12,0,37.12,38,74.25,38S702.02-2.29,739.14-2.29s37.12,38,74.25,38S850.51-2.29,887.64-2.29s37.12,38,74.25,38S999.01-2.29,1036.14-2.29s37.13,38,74.25,38,37.13-38,74.25-38"/><path class="cls-2" d="M590.65,5.71c37.12,0,37.12,38,74.25,38s37.12-38,74.25-38,37.12,38,74.25,38,37.12-38,74.25-38,37.12,38,74.25,38,37.13-38,74.25-38,37.13,38,74.25,38,37.13-38,74.25-38"/><path class="cls-2" d="M590.65,13.71c37.12,0,37.12,38,74.25,38s37.12-38,74.25-38,37.12,38,74.25,38,37.12-38,74.25-38,37.12,38,74.25,38,37.13-38,74.25-38,37.13,38,74.25,38,37.13-38,74.25-38"/><path class="cls-2" d="M590.65,21.71c37.12,0,37.12,38,74.25,38s37.12-38,74.25-38,37.12,38,74.25,38,37.12-38,74.25-38,37.12,38,74.25,38,37.13-38,74.25-38,37.13,38,74.25,38,37.13-38,74.25-38"/><path class="cls-2" d="M590.65,29.71c37.12,0,37.12,38,74.25,38s37.12-38,74.25-38,37.12,38,74.25,38,37.12-38,74.25-38,37.12,38,74.25,38,37.13-38,74.25-38,37.13,38,74.25,38,37.13-38,74.25-38"/><path class="cls-2" d="M590.65,37.71c37.12,0,37.12,38,74.25,38s37.12-38,74.25-38,37.12,38,74.25,38,37.12-38,74.25-38,37.12,38,74.25,38,37.13-38,74.25-38,37.13,38,74.25,38,37.13-38,74.25-38"/><path class="cls-2" d="M590.65,45.71c37.12,0,37.12,38,74.25,38s37.12-38,74.25-38,37.12,38,74.25,38,37.12-38,74.25-38,37.12,38,74.25,38,37.13-38,74.25-38,37.13,38,74.25,38,37.13-38,74.25-38"/><path class="cls-2" d="M590.65,53.71c37.12,0,37.12,38,74.25,38s37.12-38,74.25-38,37.12,38,74.25,38,37.12-38,74.25-38,37.12,38,74.25,38,37.13-38,74.25-38,37.13,38,74.25,38,37.13-38,74.25-38"/><path class="cls-2" d="M590.65,61.71c37.12,0,37.12,38,74.25,38s37.12-38,74.25-38,37.12,38,74.25,38,37.12-38,74.25-38,37.12,38,74.25,38,37.13-38,74.25-38,37.13,38,74.25,38,37.13-38,74.25-38"/><path class="cls-2" d="M590.65,69.71c37.12,0,37.12,38,74.25,38s37.12-38,74.25-38,37.12,38,74.25,38,37.12-38,74.25-38,37.12,38,74.25,38,37.13-38,74.25-38,37.13,38,74.25,38,37.13-38,74.25-38"/><path class="cls-2" d="M590.65,77.71c37.12,0,37.12,38,74.25,38s37.12-38,74.25-38,37.12,38,74.25,38,37.12-38,74.25-38,37.12,38,74.25,38,37.13-38,74.25-38,37.13,38,74.25,38,37.13-38,74.25-38"/><path class="cls-2" d="M590.65,85.71c37.12,0,37.12,38,74.25,38s37.12-38,74.25-38,37.12,38,74.25,38,37.12-38,74.25-38,37.12,38,74.25,38,37.13-38,74.25-38,37.13,38,74.25,38,37.13-38,74.25-38"/><path class="cls-2" d="M590.65,93.71c37.12,0,37.12,38,74.25,38s37.12-38,74.25-38,37.12,38,74.25,38,37.12-38,74.25-38,37.12,38,74.25,38,37.13-38,74.25-38,37.13,38,74.25,38,37.13-38,74.25-38"/><path class="cls-2" d="M590.65,101.71c37.12,0,37.12,38,74.25,38s37.12-38,74.25-38,37.12,38,74.25,38,37.12-38,74.25-38,37.12,38,74.25,38,37.13-38,74.25-38,37.13,38,74.25,38,37.13-38,74.25-38"/><path class="cls-2" d="M590.65,109.71c37.12,0,37.12,38,74.25,38s37.12-38,74.25-38,37.12,38,74.25,38,37.12-38,74.25-38,37.12,38,74.25,38,37.13-38,74.25-38,37.13,38,74.25,38,37.13-38,74.25-38"/><path class="cls-2" d="M590.65,117.71c37.12,0,37.12,38,74.25,38s37.12-38,74.25-38,37.12,38,74.25,38,37.12-38,74.25-38,37.12,38,74.25,38,37.13-38,74.25-38,37.13,38,74.25,38,37.13-38,74.25-38"/><path class="cls-2" d="M590.65,125.71c37.12,0,37.12,38,74.25,38s37.12-38,74.25-38,37.12,38,74.25,38,37.12-38,74.25-38,37.12,38,74.25,38,37.13-38,74.25-38,37.13,38,74.25,38,37.13-38,74.25-38"/><path class="cls-2" d="M590.65,133.71c37.12,0,37.12,38,74.25,38s37.12-38,74.25-38,37.12,38,74.25,38,37.12-38,74.25-38,37.12,38,74.25,38,37.13-38,74.25-38,37.13,38,74.25,38,37.13-38,74.25-38"/><path class="cls-2" d="M590.65,141.71c37.12,0,37.12,38,74.25,38s37.12-38,74.25-38,37.12,38,74.25,38,37.12-38,74.25-38,37.12,38,74.25,38,37.13-38,74.25-38,37.13,38,74.25,38,37.13-38,74.25-38"/><path class="cls-2" d="M590.65,149.71c37.12,0,37.12,38,74.25,38s37.12-38,74.25-38,37.12,38,74.25,38,37.12-38,74.25-38,37.12,38,74.25,38,37.13-38,74.25-38,37.13,38,74.25,38,37.13-38,74.25-38"/><path class="cls-2" d="M590.65,157.71c37.12,0,37.12,38,74.25,38s37.12-38,74.25-38,37.12,38,74.25,38,37.12-38,74.25-38,37.12,38,74.25,38,37.13-38,74.25-38,37.13,38,74.25,38,37.13-38,74.25-38"/><path class="cls-2" d="M590.65,165.71c37.12,0,37.12,38,74.25,38s37.12-38,74.25-38,37.12,38,74.25,38,37.12-38,74.25-38,37.12,38,74.25,38,37.13-38,74.25-38,37.13,38,74.25,38,37.13-38,74.25-38"/><path class="cls-2" d="M590.65,173.71c37.12,0,37.12,38,74.25,38s37.12-38,74.25-38,37.12,38,74.25,38,37.12-38,74.25-38,37.12,38,74.25,38,37.13-38,74.25-38,37.13,38,74.25,38,37.13-38,74.25-38"/><path class="cls-2" d="M590.65,181.71c37.12,0,37.12,38,74.25,38s37.12-38,74.25-38,37.12,38,74.25,38,37.12-38,74.25-38,37.12,38,74.25,38,37.13-38,74.25-38,37.13,38,74.25,38,37.13-38,74.25-38"/><path class="cls-2" d="M590.65,189.71c37.12,0,37.12,38,74.25,38s37.12-38,74.25-38,37.12,38,74.25,38,37.12-38,74.25-38,37.12,38,74.25,38,37.13-38,74.25-38,37.13,38,74.25,38,37.13-38,74.25-38"/><path class="cls-2" d="M590.65,197.71c37.12,0,37.12,38,74.25,38s37.12-38,74.25-38,37.12,38,74.25,38,37.12-38,74.25-38,37.12,38,74.25,38,37.13-38,74.25-38,37.13,38,74.25,38,37.13-38,74.25-38"/></g></g><g class="cls-5"><g><path class="cls-2" d="M801.65-36.29c37.12,0,37.12,38,74.25,38s37.12-38,74.25-38S987.27,1.71,1024.39,1.71s37.12-38,74.25-38S1135.76,1.71,1172.89,1.71s37.13-38,74.25-38S1284.26,1.71,1321.39,1.71s37.13-38,74.25-38"/><path class="cls-2" d="M801.65-28.29c37.12,0,37.12,38,74.25,38s37.12-38,74.25-38,37.12,38,74.25,38,37.12-38,74.25-38,37.12,38,74.25,38,37.13-38,74.25-38,37.13,38,74.25,38,37.13-38,74.25-38"/><path class="cls-2" d="M801.65-20.29c37.12,0,37.12,38,74.25,38s37.12-38,74.25-38,37.12,38,74.25,38,37.12-38,74.25-38,37.12,38,74.25,38,37.13-38,74.25-38,37.13,38,74.25,38,37.13-38,74.25-38"/><path class="cls-2" d="M801.65-12.29c37.12,0,37.12,38,74.25,38s37.12-38,74.25-38,37.12,38,74.25,38,37.12-38,74.25-38,37.12,38,74.25,38,37.13-38,74.25-38,37.13,38,74.25,38,37.13-38,74.25-38"/><path class="cls-2" d="M801.65-4.29c37.12,0,37.12,38,74.25,38s37.12-38,74.25-38,37.12,38,74.25,38,37.12-38,74.25-38,37.12,38,74.25,38,37.13-38,74.25-38,37.13,38,74.25,38,37.13-38,74.25-38"/><path class="cls-2" d="M801.65,3.71c37.12,0,37.12,38,74.25,38S913.02,3.71,950.14,3.71s37.12,38,74.25,38,37.12-38,74.25-38,37.12,38,74.25,38,37.13-38,74.25-38,37.13,38,74.25,38,37.13-38,74.25-38"/><path class="cls-2" d="M801.65,11.71c37.12,0,37.12,38,74.25,38s37.12-38,74.25-38,37.12,38,74.25,38,37.12-38,74.25-38,37.12,38,74.25,38,37.13-38,74.25-38,37.13,38,74.25,38,37.13-38,74.25-38"/><path class="cls-2" d="M801.65,19.71c37.12,0,37.12,38,74.25,38s37.12-38,74.25-38,37.12,38,74.25,38,37.12-38,74.25-38,37.12,38,74.25,38,37.13-38,74.25-38,37.13,38,74.25,38,37.13-38,74.25-38"/><path class="cls-2" d="M801.65,27.71c37.12,0,37.12,38,74.25,38s37.12-38,74.25-38,37.12,38,74.25,38,37.12-38,74.25-38,37.12,38,74.25,38,37.13-38,74.25-38,37.13,38,74.25,38,37.13-38,74.25-38"/><path class="cls-2" d="M801.65,35.71c37.12,0,37.12,38,74.25,38s37.12-38,74.25-38,37.12,38,74.25,38,37.12-38,74.25-38,37.12,38,74.25,38,37.13-38,74.25-38,37.13,38,74.25,38,37.13-38,74.25-38"/><path class="cls-2" d="M801.65,43.71c37.12,0,37.12,38,74.25,38s37.12-38,74.25-38,37.12,38,74.25,38,37.12-38,74.25-38,37.12,38,74.25,38,37.13-38,74.25-38,37.13,38,74.25,38,37.13-38,74.25-38"/><path class="cls-2" d="M801.65,51.71c37.12,0,37.12,38,74.25,38s37.12-38,74.25-38,37.12,38,74.25,38,37.12-38,74.25-38,37.12,38,74.25,38,37.13-38,74.25-38,37.13,38,74.25,38,37.13-38,74.25-38"/><path class="cls-2" d="M801.65,59.71c37.12,0,37.12,38,74.25,38s37.12-38,74.25-38,37.12,38,74.25,38,37.12-38,74.25-38,37.12,38,74.25,38,37.13-38,74.25-38,37.13,38,74.25,38,37.13-38,74.25-38"/><path class="cls-2" d="M801.65,67.71c37.12,0,37.12,38,74.25,38s37.12-38,74.25-38,37.12,38,74.25,38,37.12-38,74.25-38,37.12,38,74.25,38,37.13-38,74.25-38,37.13,38,74.25,38,37.13-38,74.25-38"/><path class="cls-2" d="M801.65,75.71c37.12,0,37.12,38,74.25,38s37.12-38,74.25-38,37.12,38,74.25,38,37.12-38,74.25-38,37.12,38,74.25,38,37.13-38,74.25-38,37.13,38,74.25,38,37.13-38,74.25-38"/><path class="cls-2" d="M801.65,83.71c37.12,0,37.12,38,74.25,38s37.12-38,74.25-38,37.12,38,74.25,38,37.12-38,74.25-38,37.12,38,74.25,38,37.13-38,74.25-38,37.13,38,74.25,38,37.13-38,74.25-38"/><path class="cls-2" d="M801.65,91.71c37.12,0,37.12,38,74.25,38s37.12-38,74.25-38,37.12,38,74.25,38,37.12-38,74.25-38,37.12,38,74.25,38,37.13-38,74.25-38,37.13,38,74.25,38,37.13-38,74.25-38"/><path class="cls-2" d="M801.65,99.71c37.12,0,37.12,38,74.25,38s37.12-38,74.25-38,37.12,38,74.25,38,37.12-38,74.25-38,37.12,38,74.25,38,37.13-38,74.25-38,37.13,38,74.25,38,37.13-38,74.25-38"/><path class="cls-2" d="M801.65,107.71c37.12,0,37.12,38,74.25,38s37.12-38,74.25-38,37.12,38,74.25,38,37.12-38,74.25-38,37.12,38,74.25,38,37.13-38,74.25-38,37.13,38,74.25,38,37.13-38,74.25-38"/><path class="cls-2" d="M801.65,115.71c37.12,0,37.12,38,74.25,38s37.12-38,74.25-38,37.12,38,74.25,38,37.12-38,74.25-38,37.12,38,74.25,38,37.13-38,74.25-38,37.13,38,74.25,38,37.13-38,74.25-38"/><path class="cls-2" d="M801.65,123.71c37.12,0,37.12,38,74.25,38s37.12-38,74.25-38,37.12,38,74.25,38,37.12-38,74.25-38,37.12,38,74.25,38,37.13-38,74.25-38,37.13,38,74.25,38,37.13-38,74.25-38"/><path class="cls-2" d="M801.65,131.71c37.12,0,37.12,38,74.25,38s37.12-38,74.25-38,37.12,38,74.25,38,37.12-38,74.25-38,37.12,38,74.25,38,37.13-38,74.25-38,37.13,38,74.25,38,37.13-38,74.25-38"/><path class="cls-2" d="M801.65,139.71c37.12,0,37.12,38,74.25,38s37.12-38,74.25-38,37.12,38,74.25,38,37.12-38,74.25-38,37.12,38,74.25,38,37.13-38,74.25-38,37.13,38,74.25,38,37.13-38,74.25-38"/><path class="cls-2" d="M801.65,147.71c37.12,0,37.12,38,74.25,38s37.12-38,74.25-38,37.12,38,74.25,38,37.12-38,74.25-38,37.12,38,74.25,38,37.13-38,74.25-38,37.13,38,74.25,38,37.13-38,74.25-38"/><path class="cls-2" d="M801.65,155.71c37.12,0,37.12,38,74.25,38s37.12-38,74.25-38,37.12,38,74.25,38,37.12-38,74.25-38,37.12,38,74.25,38,37.13-38,74.25-38,37.13,38,74.25,38,37.13-38,74.25-38"/><path class="cls-2" d="M801.65,163.71c37.12,0,37.12,38,74.25,38s37.12-38,74.25-38,37.12,38,74.25,38,37.12-38,74.25-38,37.12,38,74.25,38,37.13-38,74.25-38,37.13,38,74.25,38,37.13-38,74.25-38"/><path class="cls-2" d="M801.65,171.71c37.12,0,37.12,38,74.25,38s37.12-38,74.25-38,37.12,38,74.25,38,37.12-38,74.25-38,37.12,38,74.25,38,37.13-38,74.25-38,37.13,38,74.25,38,37.13-38,74.25-38"/><path class="cls-2" d="M801.65,179.71c37.12,0,37.12,38,74.25,38s37.12-38,74.25-38,37.12,38,74.25,38,37.12-38,74.25-38,37.12,38,74.25,38,37.13-38,74.25-38,37.13,38,74.25,38,37.13-38,74.25-38"/><path class="cls-2" d="M801.65,187.71c37.12,0,37.12,38,74.25,38s37.12-38,74.25-38,37.12,38,74.25,38,37.12-38,74.25-38,37.12,38,74.25,38,37.13-38,74.25-38,37.13,38,74.25,38,37.13-38,74.25-38"/><path class="cls-2" d="M801.65,195.71c37.12,0,37.12,38,74.25,38s37.12-38,74.25-38,37.12,38,74.25,38,37.12-38,74.25-38,37.12,38,74.25,38,37.13-38,74.25-38,37.13,38,74.25,38,37.13-38,74.25-38"/></g></g><g class="cls-9"><g><path class="cls-2" d="M1115.65-35.29c37.12,0,37.12,38,74.25,38s37.12-38,74.25-38,37.12,38,74.25,38,37.12-38,74.25-38,37.12,38,74.25,38,37.13-38,74.25-38,37.13,38,74.25,38,37.13-38,74.25-38"/><path class="cls-2" d="M1115.65-27.29c37.12,0,37.12,38,74.25,38s37.12-38,74.25-38,37.12,38,74.25,38,37.12-38,74.25-38,37.12,38,74.25,38,37.13-38,74.25-38,37.13,38,74.25,38,37.13-38,74.25-38"/><path class="cls-2" d="M1115.65-19.29c37.12,0,37.12,38,74.25,38s37.12-38,74.25-38,37.12,38,74.25,38,37.12-38,74.25-38,37.12,38,74.25,38,37.13-38,74.25-38,37.13,38,74.25,38,37.13-38,74.25-38"/><path class="cls-2" d="M1115.65-11.29c37.12,0,37.12,38,74.25,38s37.12-38,74.25-38,37.12,38,74.25,38,37.12-38,74.25-38,37.12,38,74.25,38,37.13-38,74.25-38,37.13,38,74.25,38,37.13-38,74.25-38"/><path class="cls-2" d="M1115.65-3.29c37.12,0,37.12,38,74.25,38s37.12-38,74.25-38,37.12,38,74.25,38,37.12-38,74.25-38,37.12,38,74.25,38,37.13-38,74.25-38,37.13,38,74.25,38,37.13-38,74.25-38"/><path class="cls-2" d="M1115.65,4.71c37.12,0,37.12,38,74.25,38s37.12-38,74.25-38,37.12,38,74.25,38,37.12-38,74.25-38,37.12,38,74.25,38,37.13-38,74.25-38,37.13,38,74.25,38,37.13-38,74.25-38"/><path class="cls-2" d="M1115.65,12.71c37.12,0,37.12,38,74.25,38s37.12-38,74.25-38,37.12,38,74.25,38,37.12-38,74.25-38,37.12,38,74.25,38,37.13-38,74.25-38,37.13,38,74.25,38,37.13-38,74.25-38"/><path class="cls-2" d="M1115.65,20.71c37.12,0,37.12,38,74.25,38s37.12-38,74.25-38,37.12,38,74.25,38,37.12-38,74.25-38,37.12,38,74.25,38,37.13-38,74.25-38,37.13,38,74.25,38,37.13-38,74.25-38"/><path class="cls-2" d="M1115.65,28.71c37.12,0,37.12,38,74.25,38s37.12-38,74.25-38,37.12,38,74.25,38,37.12-38,74.25-38,37.12,38,74.25,38,37.13-38,74.25-38,37.13,38,74.25,38,37.13-38,74.25-38"/><path class="cls-2" d="M1115.65,36.71c37.12,0,37.12,38,74.25,38s37.12-38,74.25-38,37.12,38,74.25,38,37.12-38,74.25-38,37.12,38,74.25,38,37.13-38,74.25-38,37.13,38,74.25,38,37.13-38,74.25-38"/><path class="cls-2" d="M1115.65,44.71c37.12,0,37.12,38,74.25,38s37.12-38,74.25-38,37.12,38,74.25,38,37.12-38,74.25-38,37.12,38,74.25,38,37.13-38,74.25-38,37.13,38,74.25,38,37.13-38,74.25-38"/><path class="cls-2" d="M1115.65,52.71c37.12,0,37.12,38,74.25,38s37.12-38,74.25-38,37.12,38,74.25,38,37.12-38,74.25-38,37.12,38,74.25,38,37.13-38,74.25-38,37.13,38,74.25,38,37.13-38,74.25-38"/><path class="cls-2" d="M1115.65,60.71c37.12,0,37.12,38,74.25,38s37.12-38,74.25-38,37.12,38,74.25,38,37.12-38,74.25-38,37.12,38,74.25,38,37.13-38,74.25-38,37.13,38,74.25,38,37.13-38,74.25-38"/><path class="cls-2" d="M1115.65,68.71c37.12,0,37.12,38,74.25,38s37.12-38,74.25-38,37.12,38,74.25,38,37.12-38,74.25-38,37.12,38,74.25,38,37.13-38,74.25-38,37.13,38,74.25,38,37.13-38,74.25-38"/><path class="cls-2" d="M1115.65,76.71c37.12,0,37.12,38,74.25,38s37.12-38,74.25-38,37.12,38,74.25,38,37.12-38,74.25-38,37.12,38,74.25,38,37.13-38,74.25-38,37.13,38,74.25,38,37.13-38,74.25-38"/><path class="cls-2" d="M1115.65,84.71c37.12,0,37.12,38,74.25,38s37.12-38,74.25-38,37.12,38,74.25,38,37.12-38,74.25-38,37.12,38,74.25,38,37.13-38,74.25-38,37.13,38,74.25,38,37.13-38,74.25-38"/><path class="cls-2" d="M1115.65,92.71c37.12,0,37.12,38,74.25,38s37.12-38,74.25-38,37.12,38,74.25,38,37.12-38,74.25-38,37.12,38,74.25,38,37.13-38,74.25-38,37.13,38,74.25,38,37.13-38,74.25-38"/><path class="cls-2" d="M1115.65,100.71c37.12,0,37.12,38,74.25,38s37.12-38,74.25-38,37.12,38,74.25,38,37.12-38,74.25-38,37.12,38,74.25,38,37.13-38,74.25-38,37.13,38,74.25,38,37.13-38,74.25-38"/><path class="cls-2" d="M1115.65,108.71c37.12,0,37.12,38,74.25,38s37.12-38,74.25-38,37.12,38,74.25,38,37.12-38,74.25-38,37.12,38,74.25,38,37.13-38,74.25-38,37.13,38,74.25,38,37.13-38,74.25-38"/><path class="cls-2" d="M1115.65,116.71c37.12,0,37.12,38,74.25,38s37.12-38,74.25-38,37.12,38,74.25,38,37.12-38,74.25-38,37.12,38,74.25,38,37.13-38,74.25-38,37.13,38,74.25,38,37.13-38,74.25-38"/><path class="cls-2" d="M1115.65,124.71c37.12,0,37.12,38,74.25,38s37.12-38,74.25-38,37.12,38,74.25,38,37.12-38,74.25-38,37.12,38,74.25,38,37.13-38,74.25-38,37.13,38,74.25,38,37.13-38,74.25-38"/><path class="cls-2" d="M1115.65,132.71c37.12,0,37.12,38,74.25,38s37.12-38,74.25-38,37.12,38,74.25,38,37.12-38,74.25-38,37.12,38,74.25,38,37.13-38,74.25-38,37.13,38,74.25,38,37.13-38,74.25-38"/><path class="cls-2" d="M1115.65,140.71c37.12,0,37.12,38,74.25,38s37.12-38,74.25-38,37.12,38,74.25,38,37.12-38,74.25-38,37.12,38,74.25,38,37.13-38,74.25-38,37.13,38,74.25,38,37.13-38,74.25-38"/><path class="cls-2" d="M1115.65,148.71c37.12,0,37.12,38,74.25,38s37.12-38,74.25-38,37.12,38,74.25,38,37.12-38,74.25-38,37.12,38,74.25,38,37.13-38,74.25-38,37.13,38,74.25,38,37.13-38,74.25-38"/><path class="cls-2" d="M1115.65,156.71c37.12,0,37.12,38,74.25,38s37.12-38,74.25-38,37.12,38,74.25,38,37.12-38,74.25-38,37.12,38,74.25,38,37.13-38,74.25-38,37.13,38,74.25,38,37.13-38,74.25-38"/><path class="cls-2" d="M1115.65,164.71c37.12,0,37.12,38,74.25,38s37.12-38,74.25-38,37.12,38,74.25,38,37.12-38,74.25-38,37.12,38,74.25,38,37.13-38,74.25-38,37.13,38,74.25,38,37.13-38,74.25-38"/><path class="cls-2" d="M1115.65,172.71c37.12,0,37.12,38,74.25,38s37.12-38,74.25-38,37.12,38,74.25,38,37.12-38,74.25-38,37.12,38,74.25,38,37.13-38,74.25-38,37.13,38,74.25,38,37.13-38,74.25-38"/><path class="cls-2" d="M1115.65,180.71c37.12,0,37.12,38,74.25,38s37.12-38,74.25-38,37.12,38,74.25,38,37.12-38,74.25-38,37.12,38,74.25,38,37.13-38,74.25-38,37.13,38,74.25,38,37.13-38,74.25-38"/><path class="cls-2" d="M1115.65,188.71c37.12,0,37.12,38,74.25,38s37.12-38,74.25-38,37.12,38,74.25,38,37.12-38,74.25-38,37.12,38,74.25,38,37.13-38,74.25-38,37.13,38,74.25,38,37.13-38,74.25-38"/><path class="cls-2" d="M1115.65,196.71c37.12,0,37.12,38,74.25,38s37.12-38,74.25-38,37.12,38,74.25,38,37.12-38,74.25-38,37.12,38,74.25,38,37.13-38,74.25-38,37.13,38,74.25,38,37.13-38,74.25-38"/></g></g><g class="cls-8"><g><path class="cls-2" d="M1399.65-34.29c37.12,0,37.12,38,74.25,38s37.12-38,74.25-38,37.12,38,74.25,38,37.12-38,74.25-38,37.12,38,74.25,38,37.13-38,74.25-38,37.13,38,74.25,38,37.13-38,74.25-38"/><path class="cls-2" d="M1399.65-26.29c37.12,0,37.12,38,74.25,38s37.12-38,74.25-38,37.12,38,74.25,38,37.12-38,74.25-38,37.12,38,74.25,38,37.13-38,74.25-38,37.13,38,74.25,38,37.13-38,74.25-38"/><path class="cls-2" d="M1399.65-18.29c37.12,0,37.12,38,74.25,38s37.12-38,74.25-38,37.12,38,74.25,38,37.12-38,74.25-38,37.12,38,74.25,38,37.13-38,74.25-38,37.13,38,74.25,38,37.13-38,74.25-38"/><path class="cls-2" d="M1399.65-10.29c37.12,0,37.12,38,74.25,38s37.12-38,74.25-38,37.12,38,74.25,38,37.12-38,74.25-38,37.12,38,74.25,38,37.13-38,74.25-38,37.13,38,74.25,38,37.13-38,74.25-38"/><path class="cls-2" d="M1399.65-2.29c37.12,0,37.12,38,74.25,38s37.12-38,74.25-38,37.12,38,74.25,38,37.12-38,74.25-38,37.12,38,74.25,38,37.13-38,74.25-38,37.13,38,74.25,38,37.13-38,74.25-38"/><path class="cls-2" d="M1399.65,5.71c37.12,0,37.12,38,74.25,38s37.12-38,74.25-38,37.12,38,74.25,38,37.12-38,74.25-38,37.12,38,74.25,38,37.13-38,74.25-38,37.13,38,74.25,38,37.13-38,74.25-38"/><path class="cls-2" d="M1399.65,13.71c37.12,0,37.12,38,74.25,38s37.12-38,74.25-38,37.12,38,74.25,38,37.12-38,74.25-38,37.12,38,74.25,38,37.13-38,74.25-38,37.13,38,74.25,38,37.13-38,74.25-38"/><path class="cls-2" d="M1399.65,21.71c37.12,0,37.12,38,74.25,38s37.12-38,74.25-38,37.12,38,74.25,38,37.12-38,74.25-38,37.12,38,74.25,38,37.13-38,74.25-38,37.13,38,74.25,38,37.13-38,74.25-38"/><path class="cls-2" d="M1399.65,29.71c37.12,0,37.12,38,74.25,38s37.12-38,74.25-38,37.12,38,74.25,38,37.12-38,74.25-38,37.12,38,74.25,38,37.13-38,74.25-38,37.13,38,74.25,38,37.13-38,74.25-38"/><path class="cls-2" d="M1399.65,37.71c37.12,0,37.12,38,74.25,38s37.12-38,74.25-38,37.12,38,74.25,38,37.12-38,74.25-38,37.12,38,74.25,38,37.13-38,74.25-38,37.13,38,74.25,38,37.13-38,74.25-38"/><path class="cls-2" d="M1399.65,45.71c37.12,0,37.12,38,74.25,38s37.12-38,74.25-38,37.12,38,74.25,38,37.12-38,74.25-38,37.12,38,74.25,38,37.13-38,74.25-38,37.13,38,74.25,38,37.13-38,74.25-38"/><path class="cls-2" d="M1399.65,53.71c37.12,0,37.12,38,74.25,38s37.12-38,74.25-38,37.12,38,74.25,38,37.12-38,74.25-38,37.12,38,74.25,38,37.13-38,74.25-38,37.13,38,74.25,38,37.13-38,74.25-38"/><path class="cls-2" d="M1399.65,61.71c37.12,0,37.12,38,74.25,38s37.12-38,74.25-38,37.12,38,74.25,38,37.12-38,74.25-38,37.12,38,74.25,38,37.13-38,74.25-38,37.13,38,74.25,38,37.13-38,74.25-38"/><path class="cls-2" d="M1399.65,69.71c37.12,0,37.12,38,74.25,38s37.12-38,74.25-38,37.12,38,74.25,38,37.12-38,74.25-38,37.12,38,74.25,38,37.13-38,74.25-38,37.13,38,74.25,38,37.13-38,74.25-38"/><path class="cls-2" d="M1399.65,77.71c37.12,0,37.12,38,74.25,38s37.12-38,74.25-38,37.12,38,74.25,38,37.12-38,74.25-38,37.12,38,74.25,38,37.13-38,74.25-38,37.13,38,74.25,38,37.13-38,74.25-38"/><path class="cls-2" d="M1399.65,85.71c37.12,0,37.12,38,74.25,38s37.12-38,74.25-38,37.12,38,74.25,38,37.12-38,74.25-38,37.12,38,74.25,38,37.13-38,74.25-38,37.13,38,74.25,38,37.13-38,74.25-38"/><path class="cls-2" d="M1399.65,93.71c37.12,0,37.12,38,74.25,38s37.12-38,74.25-38,37.12,38,74.25,38,37.12-38,74.25-38,37.12,38,74.25,38,37.13-38,74.25-38,37.13,38,74.25,38,37.13-38,74.25-38"/><path class="cls-2" d="M1399.65,101.71c37.12,0,37.12,38,74.25,38s37.12-38,74.25-38,37.12,38,74.25,38,37.12-38,74.25-38,37.12,38,74.25,38,37.13-38,74.25-38,37.13,38,74.25,38,37.13-38,74.25-38"/><path class="cls-2" d="M1399.65,109.71c37.12,0,37.12,38,74.25,38s37.12-38,74.25-38,37.12,38,74.25,38,37.12-38,74.25-38,37.12,38,74.25,38,37.13-38,74.25-38,37.13,38,74.25,38,37.13-38,74.25-38"/><path class="cls-2" d="M1399.65,117.71c37.12,0,37.12,38,74.25,38s37.12-38,74.25-38,37.12,38,74.25,38,37.12-38,74.25-38,37.12,38,74.25,38,37.13-38,74.25-38,37.13,38,74.25,38,37.13-38,74.25-38"/><path class="cls-2" d="M1399.65,125.71c37.12,0,37.12,38,74.25,38s37.12-38,74.25-38,37.12,38,74.25,38,37.12-38,74.25-38,37.12,38,74.25,38,37.13-38,74.25-38,37.13,38,74.25,38,37.13-38,74.25-38"/><path class="cls-2" d="M1399.65,133.71c37.12,0,37.12,38,74.25,38s37.12-38,74.25-38,37.12,38,74.25,38,37.12-38,74.25-38,37.12,38,74.25,38,37.13-38,74.25-38,37.13,38,74.25,38,37.13-38,74.25-38"/><path class="cls-2" d="M1399.65,141.71c37.12,0,37.12,38,74.25,38s37.12-38,74.25-38,37.12,38,74.25,38,37.12-38,74.25-38,37.12,38,74.25,38,37.13-38,74.25-38,37.13,38,74.25,38,37.13-38,74.25-38"/><path class="cls-2" d="M1399.65,149.71c37.12,0,37.12,38,74.25,38s37.12-38,74.25-38,37.12,38,74.25,38,37.12-38,74.25-38,37.12,38,74.25,38,37.13-38,74.25-38,37.13,38,74.25,38,37.13-38,74.25-38"/><path class="cls-2" d="M1399.65,157.71c37.12,0,37.12,38,74.25,38s37.12-38,74.25-38,37.12,38,74.25,38,37.12-38,74.25-38,37.12,38,74.25,38,37.13-38,74.25-38,37.13,38,74.25,38,37.13-38,74.25-38"/><path class="cls-2" d="M1399.65,165.71c37.12,0,37.12,38,74.25,38s37.12-38,74.25-38,37.12,38,74.25,38,37.12-38,74.25-38,37.12,38,74.25,38,37.13-38,74.25-38,37.13,38,74.25,38,37.13-38,74.25-38"/><path class="cls-2" d="M1399.65,173.71c37.12,0,37.12,38,74.25,38s37.12-38,74.25-38,37.12,38,74.25,38,37.12-38,74.25-38,37.12,38,74.25,38,37.13-38,74.25-38,37.13,38,74.25,38,37.13-38,74.25-38"/><path class="cls-2" d="M1399.65,181.71c37.12,0,37.12,38,74.25,38s37.12-38,74.25-38,37.12,38,74.25,38,37.12-38,74.25-38,37.12,38,74.25,38,37.13-38,74.25-38,37.13,38,74.25,38,37.13-38,74.25-38"/><path class="cls-2" d="M1399.65,189.71c37.12,0,37.12,38,74.25,38s37.12-38,74.25-38,37.12,38,74.25,38,37.12-38,74.25-38,37.12,38,74.25,38,37.13-38,74.25-38,37.13,38,74.25,38,37.13-38,74.25-38"/><path class="cls-2" d="M1399.65,197.71c37.12,0,37.12,38,74.25,38s37.12-38,74.25-38,37.12,38,74.25,38,37.12-38,74.25-38,37.12,38,74.25,38,37.13-38,74.25-38,37.13,38,74.25,38,37.13-38,74.25-38"/></g></g></svg>