<?xml version="1.0" encoding="UTF-8"?><svg id="Layer_2" xmlns="http://www.w3.org/2000/svg" width="358" height="331" viewBox="0 0 358 331"><defs><style>.cls-1{fill:#fff;}</style></defs><path class="cls-1" d="M261.43,35c15.3,0,29.73,6.01,40.64,16.92s16.92,25.35,16.92,40.64V238.43c0,15.3-6.01,29.73-16.92,40.64s-25.35,16.92-40.64,16.92H88.57c-15.3,0-29.73-6.01-40.64-16.92s-16.92-25.35-16.92-40.64V92.57c0-15.3,6.01-29.73,16.92-40.64s25.35-16.92,40.64-16.92h172.87m0-16H88.57C48.11,19,15,52.11,15,92.57V238.43c0,40.46,33.11,73.57,73.57,73.57h172.87c40.46,0,73.57-33.11,73.57-73.57V92.57c0-40.46-33.11-73.57-73.57-73.57h0Z"/><g><g><path d="M118.1,76.81h40.48l61.92,166.23h-33.49l-12.05-33.96H101.47l-12.05,33.96H56.17L118.1,76.81Zm48.67,109l-27.47-76.94h-1.93l-27.47,76.94h56.86Z"/><path d="M253.27,68.02c9.16,0,17.35,7.36,17.35,17.1s-8.19,17.1-17.35,17.1-17.59-7.36-17.59-17.1,8.19-17.1,17.59-17.1Zm-15.42,51.53h30.84v123.49h-30.84V119.56Z"/></g><g><path class="cls-1" d="M118.1,76.81h40.48l61.92,166.23h-33.49l-12.05-33.96H101.47l-12.05,33.96H56.17L118.1,76.81Zm48.67,109l-27.47-76.94h-1.93l-27.47,76.94h56.86Z"/><path class="cls-1" d="M253.27,68.02c9.16,0,17.35,7.36,17.35,17.1s-8.19,17.1-17.35,17.1-17.59-7.36-17.59-17.1,8.19-17.1,17.59-17.1Zm-15.42,51.53h30.84v123.49h-30.84V119.56Z"/></g></g></svg>