<?xml version="1.0" encoding="UTF-8"?><svg id="Layer_2" xmlns="http://www.w3.org/2000/svg" width="362" height="355" viewBox="0 0 362 355"><defs><style>.cls-1{fill:#fff;}</style></defs><path class="cls-1" d="M264.43,36c15.3,0,29.73,6.01,40.64,16.92s16.92,25.35,16.92,40.64V239.43c0,15.3-6.01,29.73-16.92,40.64s-25.35,16.92-40.64,16.92H91.57c-15.3,0-29.73-6.01-40.64-16.92s-16.92-25.35-16.92-40.64V93.57c0-15.3,6.01-29.73,16.92-40.64s25.35-16.92,40.64-16.92h172.87m0-16H91.57c-40.46,0-73.57,33.11-73.57,73.57V239.43c0,40.46,33.11,73.57,73.57,73.57h172.87c40.46,0,73.57-33.11,73.57-73.57V93.57c0-40.46-33.11-73.57-73.57-73.57h0Z"/><g><g><path d="M109.68,90.83h32.85l50.25,141.37h-27.18l-9.78-28.88h-59.64l-9.78,28.88h-26.99L109.68,90.83Zm39.5,92.7l-22.29-65.43h-1.56l-22.29,65.43h46.15Z"/><path d="M246.56,212.8c12.91,0,22.49-7.67,23.66-23.02l.2-62.6h25.03l-.2,105.01h-25.03v-21.61h-.78c-1.96,9.09-11.73,23.63-33.24,23.63-19.95,0-35.39-12.52-35.2-41V127.18h25.03l-.2,59.98c0,17.17,7.24,25.65,20.73,25.65Z"/></g><g><path class="cls-1" d="M109.68,90.83h32.85l50.25,141.37h-27.18l-9.78-28.88h-59.64l-9.78,28.88h-26.99L109.68,90.83Zm39.5,92.7l-22.29-65.43h-1.56l-22.29,65.43h46.15Z"/><path class="cls-1" d="M246.56,212.8c12.91,0,22.49-7.67,23.66-23.02l.2-62.6h25.03l-.2,105.01h-25.03v-21.61h-.78c-1.96,9.09-11.73,23.63-33.24,23.63-19.95,0-35.39-12.52-35.2-41V127.18h25.03l-.2,59.98c0,17.17,7.24,25.65,20.73,25.65Z"/></g></g></svg>