<?xml version="1.0" encoding="UTF-8"?><svg id="Layer_2" xmlns="http://www.w3.org/2000/svg" width="357" height="339" viewBox="0 0 357 339"><defs><style>.cls-1{fill:#fff;}</style></defs><path class="cls-1" d="M265.33,35.55c15.3,0,29.73,6.01,40.64,16.92,10.91,10.91,16.92,25.35,16.92,40.64V238.98c0,15.3-6.01,29.73-16.92,40.64s-25.35,16.92-40.64,16.92H92.47c-15.3,0-29.73-6.01-40.64-16.92s-16.92-25.35-16.92-40.64V93.12c0-15.3,6.01-29.73,16.92-40.64,10.91-10.91,25.35-16.92,40.64-16.92h172.87m0-16H92.47c-40.46,0-73.57,33.11-73.57,73.57V238.98c0,40.46,33.11,73.57,73.57,73.57h172.87c40.46,0,73.57-33.11,73.57-73.57V93.12c0-40.46-33.11-73.57-73.57-73.57h0Z"/><path class="cls-1" d="M125.97,79.87h104.05l-4.05,29h-73.88l-6.12,32h116.8v17.79l-65.8,66.21s6.76-1.76,18.38,1.62,37.62-6.62,37.62-6.62l-1,24s-35,11-61,6-28,3-28,3l-13-19,62.54-64.5-73.98,.5-12.57,65.03-35-1.03L125.97,79.87Z"/></svg>