<?xml version="1.0" encoding="UTF-8"?><svg id="Layer_2" xmlns="http://www.w3.org/2000/svg" width="367" height="355" viewBox="0 0 367 355"><defs><style>.cls-1{fill:#fff;}</style></defs><path class="cls-1" d="M268.43,36c15.3,0,29.73,6.01,40.64,16.92s16.92,25.35,16.92,40.64V239.43c0,15.3-6.01,29.73-16.92,40.64s-25.35,16.92-40.64,16.92H95.57c-15.3,0-29.73-6.01-40.64-16.92s-16.92-25.35-16.92-40.64V93.57c0-15.3,6.01-29.73,16.92-40.64s25.35-16.92,40.64-16.92h172.87m0-16H95.57c-40.46,0-73.57,33.11-73.57,73.57V239.43c0,40.46,33.11,73.57,73.57,73.57h172.87c40.46,0,73.57-33.11,73.57-73.57V93.57c0-40.46-33.11-73.57-73.57-73.57h0Z"/><g><g><path d="M70.98,181.95h24.28c0,20.76,10.3,31.04,27.22,31.04s27.4-10.48,27.4-32.98V97.56h24.09v84.58c0,35.31-20.78,53.16-51.68,53.16s-51.31-17.65-51.31-53.35Z"/><path d="M191.08,190.29h24.83c.74,13.19,8.46,23.67,27.77,23.67,16.37,0,25.38-7.37,25.38-19.59,0-11.06-7.17-15.91-20.05-18.62l-17.66-3.69c-20.97-4.27-36.78-14.55-36.78-37.44,0-25.03,18.94-38.8,48.37-38.8s48.19,14.16,48.19,40.35h-24.83c0-12.42-9.2-19.01-23.91-19.01-16.37,0-22.44,8.15-22.44,17.46,0,7.57,4.41,14.16,17.29,17.07l16.55,3.49c28.69,6.01,40.83,17.85,40.83,38.99,0,27.94-21.7,41.13-51.13,41.13-32.92,0-52.42-16.68-52.42-45.01Z"/></g><g><path class="cls-1" d="M70.98,181.95h24.28c0,20.76,10.3,31.04,27.22,31.04s27.4-10.48,27.4-32.98V97.56h24.09v84.58c0,35.31-20.78,53.16-51.68,53.16s-51.31-17.65-51.31-53.35Z"/><path class="cls-1" d="M191.08,190.29h24.83c.74,13.19,8.46,23.67,27.77,23.67,16.37,0,25.38-7.37,25.38-19.59,0-11.06-7.17-15.91-20.05-18.62l-17.66-3.69c-20.97-4.27-36.78-14.55-36.78-37.44,0-25.03,18.94-38.8,48.37-38.8s48.19,14.16,48.19,40.35h-24.83c0-12.42-9.2-19.01-23.91-19.01-16.37,0-22.44,8.15-22.44,17.46,0,7.57,4.41,14.16,17.29,17.07l16.55,3.49c28.69,6.01,40.83,17.85,40.83,38.99,0,27.94-21.7,41.13-51.13,41.13-32.92,0-52.42-16.68-52.42-45.01Z"/></g></g></svg>