<?xml version="1.0" encoding="UTF-8"?><svg id="Layer_2" xmlns="http://www.w3.org/2000/svg" width="388" height="351" viewBox="0 0 388 351"><defs><style>.cls-1{fill:#fff;}</style></defs><path class="cls-1" d="M272.43,32c15.3,0,29.73,6.01,40.64,16.92s16.92,25.35,16.92,40.64V235.43c0,15.3-6.01,29.73-16.92,40.64s-25.35,16.92-40.64,16.92H99.57c-15.3,0-29.73-6.01-40.64-16.92s-16.92-25.35-16.92-40.64V89.57c0-15.3,6.01-29.73,16.92-40.64s25.35-16.92,40.64-16.92h172.87m0-16H99.57c-40.46,0-73.57,33.11-73.57,73.57V235.43c0,40.46,33.11,73.57,73.57,73.57h172.87c40.46,0,73.57-33.11,73.57-73.57V89.57c0-40.46-33.11-73.57-73.57-73.57h0Z"/><g><g><path d="M87.29,80.08h64.62c42.3,0,61.57,21.06,61.57,51.85s-19.27,51.62-61.57,51.62h-33.84v55.02h-30.78V80.08Zm63.45,77.44c21.15,0,30.78-9.74,30.78-25.59s-9.63-25.81-30.78-25.81h-32.66v51.4h32.66Z"/><path d="M232.75,120.84h30.08v28.08h.71c3.99-15.85,15.51-29.44,36.19-29.44,2.82,0,6.11,.23,9.4,1.13v24.45c-3.52-.45-6.34-.68-9.4-.68-20.21,0-36.89,11.77-36.89,39.4v54.79h-30.08V120.84Z"/></g><g><path class="cls-1" d="M87.29,80.08h64.62c42.3,0,61.57,21.06,61.57,51.85s-19.27,51.62-61.57,51.62h-33.84v55.02h-30.78V80.08Zm63.45,77.44c21.15,0,30.78-9.74,30.78-25.59s-9.63-25.81-30.78-25.81h-32.66v51.4h32.66Z"/><path class="cls-1" d="M232.75,120.84h30.08v28.08h.71c3.99-15.85,15.51-29.44,36.19-29.44,2.82,0,6.11,.23,9.4,1.13v24.45c-3.52-.45-6.34-.68-9.4-.68-20.21,0-36.89,11.77-36.89,39.4v54.79h-30.08V120.84Z"/></g></g></svg>