<?xml version="1.0" encoding="UTF-8"?><svg id="Layer_2" xmlns="http://www.w3.org/2000/svg" width="369" height="339" viewBox="0 0 369 339"><defs><style>.cls-1{fill:#fff;}</style></defs><path class="cls-1" d="M272.43,36c15.3,0,29.73,6.01,40.64,16.92,10.91,10.91,16.92,25.35,16.92,40.64V239.43c0,15.3-6.01,29.73-16.92,40.64s-25.35,16.92-40.64,16.92H99.57c-15.3,0-29.73-6.01-40.64-16.92s-16.92-25.35-16.92-40.64V93.57c0-15.3,6.01-29.73,16.92-40.64,10.91-10.91,25.35-16.92,40.64-16.92h172.87m0-16H99.57c-40.46,0-73.57,33.11-73.57,73.57V239.43c0,40.46,33.11,73.57,73.57,73.57h172.87c40.46,0,73.57-33.11,73.57-73.57V93.57c0-40.46-33.11-73.57-73.57-73.57h0Z"/><g><g><path d="M82,97.5h58.06c38,0,55.31,19.46,55.31,47.91s-17.31,47.7-55.31,47.7h-30.4v50.83h-27.66V97.5Zm57,71.55c19,0,27.66-9,27.66-23.64s-8.66-23.85-27.66-23.85h-29.35v47.49h29.35Z"/><path d="M206.35,209.63h24.07c1.48,11.51,10.34,16.11,23.01,16.11,11.61,0,19.85-3.97,19.85-13.18,0-6.69-4.43-10.04-12.88-11.71l-20.27-4.39c-22.17-5.02-30.82-16.53-30.82-31.17,0-20.5,17.73-32.22,44.12-32.22,27.87,0,43.7,13.18,44.12,36.19h-22.38c-1.69-11.92-9.71-15.9-21.53-15.9s-18.16,3.97-18.16,11.51c0,6.28,4.43,10.25,13.3,11.92l20.9,4.6c17.31,3.97,31.46,11.51,31.46,30.54,0,24.06-22.38,34.1-48.14,34.1-28.08,0-46.45-11.92-46.66-36.4Z"/></g><g><path class="cls-1" d="M82,97.5h58.06c38,0,55.31,19.46,55.31,47.91s-17.31,47.7-55.31,47.7h-30.4v50.83h-27.66V97.5Zm57,71.55c19,0,27.66-9,27.66-23.64s-8.66-23.85-27.66-23.85h-29.35v47.49h29.35Z"/><path class="cls-1" d="M206.35,209.63h24.07c1.48,11.51,10.34,16.11,23.01,16.11,11.61,0,19.85-3.97,19.85-13.18,0-6.69-4.43-10.04-12.88-11.71l-20.27-4.39c-22.17-5.02-30.82-16.53-30.82-31.17,0-20.5,17.73-32.22,44.12-32.22,27.87,0,43.7,13.18,44.12,36.19h-22.38c-1.69-11.92-9.71-15.9-21.53-15.9s-18.16,3.97-18.16,11.51c0,6.28,4.43,10.25,13.3,11.92l20.9,4.6c17.31,3.97,31.46,11.51,31.46,30.54,0,24.06-22.38,34.1-48.14,34.1-28.08,0-46.45-11.92-46.66-36.4Z"/></g></g></svg>