<?xml version="1.0" encoding="UTF-8"?><svg id="Layer_2" xmlns="http://www.w3.org/2000/svg" width="372" height="335" viewBox="0 0 372 335"><defs><style>.cls-1,.cls-2{fill:#fff;}.cls-2{stroke:#fff;stroke-miterlimit:10;stroke-width:2px;}</style></defs><path class="cls-1" d="M268.43,39c15.3,0,29.73,6.01,40.64,16.92s16.92,25.35,16.92,40.64V242.43c0,15.3-6.01,29.73-16.92,40.64s-25.35,16.92-40.64,16.92H95.57c-15.3,0-29.73-6.01-40.64-16.92s-16.92-25.35-16.92-40.64V96.57c0-15.3,6.01-29.73,16.92-40.64s25.35-16.92,40.64-16.92h172.87m0-16H95.57c-40.46,0-73.57,33.11-73.57,73.57V242.43c0,40.46,33.11,73.57,73.57,73.57h172.87c40.46,0,73.57-33.11,73.57-73.57V96.57c0-40.46-33.11-73.57-73.57-73.57h0Z"/><path class="cls-2" d="M218,72c2-1,5.83-1.68,13,2,7.34,3.76,31.45,15.68,31,16,0,0,8,4,8,13v126.28c0,7.72,3,14.72-9,20.72s-29,15-33,18-9,1-10,0,8,2,8-12,1-167,1-175-11-8-9-9Z"/><path class="cls-2" d="M218,268s-117-120-121-124-4-9-2-12,7-11,12-13,9,2,9,2l110.04,94.24s-.04,26.76-1.04,38.76-7,14-7,14Z"/><path class="cls-2" d="M145.34,145.22s68.66-72.22,72.66-73.22,9,6,9,9-.96,43.98-.96,43.98l-52.36,45.42-28.35-25.18Z"/><path class="cls-2" d="M121.04,170.4s-23.04,23.6-25.04,26.6-4,6.47,0,11.24-1-1.24,7,7.76,16,1,16,1l26.54-23.3-24.49-23.3Z"/></svg>