<?xml version="1.0" encoding="UTF-8"?><svg id="Layer_2" xmlns="http://www.w3.org/2000/svg" width="372" height="328" viewBox="0 0 372 328"><defs><style>.cls-1{fill:#fff;}</style></defs><path class="cls-1" d="M268.43,28c15.3,0,29.73,6.01,40.64,16.92s16.92,25.35,16.92,40.64V231.43c0,15.3-6.01,29.73-16.92,40.64s-25.35,16.92-40.64,16.92H95.57c-15.3,0-29.73-6.01-40.64-16.92s-16.92-25.35-16.92-40.64V85.57c0-15.3,6.01-29.73,16.92-40.64s25.35-16.92,40.64-16.92h172.87m0-16H95.57C55.11,12,22,45.11,22,85.57V231.43c0,40.46,33.11,73.57,73.57,73.57h172.87c40.46,0,73.57-33.11,73.57-73.57V85.57c0-40.46-33.11-73.57-73.57-73.57h0Z"/><g><g><path d="M123.75,182.81l-35.36,53.23h-30.75l50.63-76.35L60.56,87.59h30.75l32.43,48.78,32.22-48.78h30.75l-47.7,71.9,50.84,76.56h-30.96l-35.15-53.23Z"/><path d="M191.33,180.9c0-40.29,24.48-57.26,47.91-57.26,15.9,0,28.45,7.63,33.68,18.03v-54.08h26.78V236.04h-26.78v-15.91c-5.23,10.39-17.78,18.03-33.68,18.03-23.43,0-47.91-16.97-47.91-57.26Zm54.19,34.57c14.64,0,28.66-10.82,28.66-34.57s-14.02-34.57-28.66-34.57-29.08,10.82-29.08,34.57,14.02,34.57,29.08,34.57Z"/></g><g><path class="cls-1" d="M123.75,182.81l-35.36,53.23h-30.75l50.63-76.35L60.56,87.59h30.75l32.43,48.78,32.22-48.78h30.75l-47.7,71.9,50.84,76.56h-30.96l-35.15-53.23Z"/><path class="cls-1" d="M191.33,180.9c0-40.29,24.48-57.26,47.91-57.26,15.9,0,28.45,7.63,33.68,18.03v-54.08h26.78V236.04h-26.78v-15.91c-5.23,10.39-17.78,18.03-33.68,18.03-23.43,0-47.91-16.97-47.91-57.26Zm54.19,34.57c14.64,0,28.66-10.82,28.66-34.57s-14.02-34.57-28.66-34.57-29.08,10.82-29.08,34.57,14.02,34.57,29.08,34.57Z"/></g></g></svg>